HIERARCHY
ROOT Hips
{
    OFFSET 0.000000 0.000000 0.000000
    CHANNELS 6 Xposition Yposition Zposition Zrotation Xrotation Yrotation
    JOINT Spine
    {
        OFFSET -0.000000 14.517291 0.000000
        CHANNELS 3 Zrotation Xrotation Yrotation
        JOINT Spine1
        {
            OFFSET -0.000000 37.558300 0.000000
            CHANNELS 3 Zrotation Xrotation Yrotation
            JOINT Neck
            {
                OFFSET -0.000000 37.404057 3.400369
                CHANNELS 3 Zrotation Xrotation Yrotation
                JOINT Head
                {
                    OFFSET -0.000000 24.785618 -3.540803
                    CHANNELS 3 Zrotation Xrotation Yrotation
                    End Site
                    {
                        OFFSET -0.000000 35.408028 0.000000
                    }
                }
            }
            JOINT LeftShoulder
            {
                OFFSET 6.992933 33.973492 -0.192664
                CHANNELS 3 Zrotation Xrotation Yrotation
                JOINT LeftArm
                {
                    OFFSET 21.527611 0.000000 0.000000
                    CHANNELS 3 Zrotation Xrotation Yrotation
                    JOINT LeftForeArm
                    {
                        OFFSET 56.353916 0.000000 0.000000
                        CHANNELS 3 Zrotation Xrotation Yrotation
                        JOINT LeftHand
                        {
                            OFFSET 47.774071 0.000000 0.000000
                            CHANNELS 3 Zrotation Xrotation Yrotation
                            End Site
                            {
                                OFFSET 26.556021 0.000000 0.000000
                            }
                        }
                    }
                }
            }
            JOINT RightShoulder
            {
                OFFSET -7.065357 33.973492 -0.192664
                CHANNELS 3 Zrotation Xrotation Yrotation
                JOINT RightArm
                {
                    OFFSET -21.527611 0.000000 0.000000
                    CHANNELS 3 Zrotation Xrotation Yrotation
                    JOINT RightForeArm
                    {
                        OFFSET -56.353916 0.000000 0.000000
                        CHANNELS 3 Zrotation Xrotation Yrotation
                        JOINT RightHand
                        {
                            OFFSET -47.774071 0.000000 0.000000
                            CHANNELS 3 Zrotation Xrotation Yrotation
                            End Site
                            {
                                OFFSET -26.556021 0.000000 0.000000
                            }
                        }
                    }
                }
            }
        }
    }
    JOINT LeftUpLeg
    {
        OFFSET 17.704014 0.000000 0.000000
        CHANNELS 3 Zrotation Xrotation Yrotation
        JOINT LeftLeg
        {
            OFFSET -0.000000 -81.181816 0.000000
            CHANNELS 3 Zrotation Xrotation Yrotation
            JOINT LeftFoot
            {
                OFFSET -0.000000 -62.821102 0.000000
                CHANNELS 3 Zrotation Xrotation Yrotation
                JOINT LeftToeBase
                {
                    OFFSET -0.000000 -11.507608 26.556021
                    CHANNELS 3 Zrotation Xrotation Yrotation
                    End Site
                    {
                        OFFSET -0.000000 0.000000 7.081605
                    }
                }
            }
        }
    }
    JOINT RightUpLeg
    {
        OFFSET -17.704014 0.000000 0.000000
        CHANNELS 3 Zrotation Xrotation Yrotation
        JOINT RightLeg
        {
            OFFSET -0.000000 -81.181816 0.000000
            CHANNELS 3 Zrotation Xrotation Yrotation
            JOINT RightFoot
            {
                OFFSET -0.000000 -62.821102 0.000000
                CHANNELS 3 Zrotation Xrotation Yrotation
                JOINT RightToeBase
                {
                    OFFSET -0.000000 -11.507608 26.556021
                    CHANNELS 3 Zrotation Xrotation Yrotation
                    End Site
                    {
                        OFFSET -0.000000 0.000000 7.081605
                    }
                }
            }
        }
    }
}
MOTION
Frames:    12
Frame Time:    0.008333
6.847306    157.471710    -117.677902    -0.866549    -3.211497    42.753922    1.582036    -1.145608    -3.410478    -14.937158    0.896080    -1.025213    -0.372069    -2.150994    -22.557255    17.369448    5.210036    -21.883595    10.340044    5.454170    -24.459805    -30.832754    23.531216    -50.623787    -21.645399    10.659452    -97.164406    -0.253132    -14.343480    -7.034535    -20.994572    -7.733197    -7.919081    4.575184    -17.418228    31.626055    -1.714494    -0.863620    86.393623    2.631901    1.539017    33.518707    18.393013    -2.251402    -0.023637    -11.449394    27.522326    -19.265711    -0.535234    -23.668440    43.409321    0.000000    0.000000    0.000000    -15.770370    -19.224775    -12.518075    7.680885    19.481035    -15.297231    3.730911    12.167965    -14.951357    0.000000    0.000000    0.000000    
6.822320    157.465805    -117.665955    -0.882929    -3.233960    42.773975    1.528446    -1.167803    -3.409548    -14.834379    0.903812    -1.024705    -0.344489    -2.127228    -22.560127    17.376848    5.259047    -21.898256    10.423647    5.439700    -24.480873    -30.786892    23.535744    -50.683182    -21.636044    10.628333    -97.171700    -0.176990    -14.370745    -7.016572    -20.835522    -7.694938    -7.895117    4.824978    -17.472643    31.953979    -1.778311    -1.043674    86.222244    2.745629    1.449288    33.562214    18.429039    -2.268756    -0.024762    -11.443753    27.546509    -19.264019    -0.547480    -23.686565    43.401909    0.000000    0.000000    0.000000    -15.742570    -19.210405    -12.545793    7.686395    19.474136    -15.281957    3.715573    12.168003    -14.959428    0.000000    0.000000    0.000000    
6.804011    157.456696    -117.650696    -0.893207    -3.258604    42.788483    1.468594    -1.206355    -3.420920    -14.701429    0.932208    -1.025841    -0.348539    -2.127470    -22.544174    17.355320    5.337268    -21.894592    10.454542    5.414325    -24.471430    -30.718449    23.562452    -50.722187    -21.607079    10.559840    -97.191505    -0.203973    -14.410863    -7.032790    -20.718431    -7.629375    -7.843839    5.066082    -17.461327    32.261593    -1.984039    -1.361202    86.056610    2.960077    1.380597    33.454391    18.462906    -2.268543    -0.023460    -11.433658    27.559753    -19.288286    -0.528765    -23.688543    43.389214    0.000000    0.000000    0.000000    -15.716963    -19.187927    -12.562922    7.694307    19.465021    -15.288783    3.709936    12.151750    -14.951251    0.000000    0.000000    0.000000    
6.785304    157.446594    -117.637573    -0.905002    -3.286778    42.798130    1.407341    -1.230177    -3.421132    -14.562815    0.944445    -1.025425    -0.321951    -2.153989    -22.532049    17.275217    5.432960    -21.907858    10.498025    5.400181    -24.453962    -30.671852    23.573500    -50.786850    -21.574209    10.500510    -97.189476    -0.276389    -14.424840    -7.038564    -20.600521    -7.727726    -7.661661    5.261405    -17.381643    32.402771    -2.022363    -1.596995    85.963905    3.020287    1.193915    33.398281    18.498518    -2.273838    -0.020565    -11.427525    27.592995    -19.305489    -0.515101    -23.711716    43.396435    0.000000    0.000000    0.000000    -15.689982    -19.164528    -12.559614    7.713127    19.450687    -15.332470    3.707276    12.141138    -14.922447    0.000000    0.000000    0.000000    
6.769222    157.435150    -117.626152    -0.912162    -3.312866    42.804241    1.325098    -1.269071    -3.441240    -14.370396    0.970751    -1.030308    -0.373827    -2.120416    -22.529091    17.268112    5.477560    -21.903418    10.470315    5.386558    -24.416056    -30.612959    23.559572    -50.814804    -21.557013    10.476517    -97.192947    -0.302425    -14.427808    -7.056299    -20.519455    -7.656555    -7.573172    5.550567    -17.483620    32.759335    -1.984741    -1.780439    85.773140    3.442416    1.094249    33.336323    18.487619    -2.252716    -0.027069    -11.428812    27.616550    -19.319338    -0.361920    -23.765850    43.579994    0.000000    0.000000    0.000000    -15.664592    -19.147905    -12.556417    7.723402    19.449993    -15.353681    3.684210    12.127039    -14.902486    0.000000    0.000000    0.000000    
6.759301    157.422913    -117.613174    -0.915601    -3.340305    42.801300    1.262757    -1.297197    -3.433919    -14.227169    0.985083    -1.027245    -0.389457    -2.097781    -22.527061    17.250235    5.526186    -21.907646    10.469436    5.368808    -24.403038    -30.581469    23.512373    -50.841713    -21.587755    10.522152    -97.161316    -0.249038    -14.408902    -7.064342    -20.417530    -7.592380    -7.523951    5.833111    -17.401524    33.162010    -2.004932    -2.209292    85.579689    3.388748    0.663246    33.413857    18.512136    -2.243495    -0.033602    -11.424407    27.643646    -19.352133    -0.337297    -23.799046    43.611488    0.000000    0.000000    0.000000    -15.643378    -19.129972    -12.541719    7.735149    19.456264    -15.366770    3.699591    12.096516    -14.898366    0.000000    0.000000    0.000000    
6.754993    157.410416    -117.602776    -0.909361    -3.370429    42.796719    1.204422    -1.310654    -3.430920    -14.101414    0.993217    -1.026122    -0.360265    -2.119295    -22.510895    17.164654    5.600339    -21.914045    10.477821    5.340936    -24.366472    -30.555162    23.514002    -50.878376    -21.569187    10.506199    -97.156120    -0.244951    -14.400484    -7.061014    -20.300514    -7.580451    -7.473605    6.158563    -17.377045    33.583389    -2.008225    -2.525283    85.388733    3.513784    0.378813    33.337662    18.521564    -2.224853    -0.024919    -11.396573    27.671055    -19.394365    -0.315970    -23.829216    43.644508    0.000000    0.000000    0.000000    -15.627986    -19.099852    -12.535315    7.745440    19.453779    -15.371521    3.704304    12.076097    -14.883163    0.000000    0.000000    0.000000    
6.746690    157.396698    -117.597214    -0.896683    -3.395907    42.781807    1.135448    -1.321117    -3.412381    -13.969196    0.999554    -1.020161    -0.359052    -2.072979    -22.517200    17.152950    5.600117    -21.922037    10.467561    5.311092    -24.356947    -30.517574    23.526695    -50.888901    -21.563179    10.479612    -97.169151    -0.232182    -14.425970    -7.087696    -20.207329    -7.578970    -7.430298    6.561127    -17.469715    34.020897    -1.891664    -2.643124    85.212639    3.617163    0.176908    33.272522    18.524086    -2.203460    -0.017412    -11.371011    27.700218    -19.430738    -0.295736    -23.854836    43.661896    0.000000    0.000000    0.000000    -15.620972    -19.083372    -12.503601    7.766980    19.470079    -15.373538    3.704338    12.045792    -14.885823    0.000000    0.000000    0.000000    
6.742381    157.380707    -117.588684    -0.884909    -3.418871    42.760555    1.077658    -1.345067    -3.393356    -13.871214    1.010372    -1.013262    -0.330310    -2.048671    -22.507408    17.117674    5.634768    -21.924860    10.474507    5.298510    -24.342484    -30.477909    23.535130    -50.910511    -21.542643    10.425374    -97.188858    -0.240725    -14.463197    -7.083557    -20.055874    -7.573842    -7.380128    6.935781    -17.504272    34.487053    -1.811763    -2.879762    84.997810    3.802050    -0.085120    33.254131    18.530342    -2.176411    -0.020353    -11.368190    27.721142    -19.440128    -0.258385    -23.878983    43.680496    0.000000    0.000000    0.000000    -15.612070    -19.063866    -12.477462    7.782723    19.473007    -15.384912    3.714505    12.013235    -14.875273    0.000000    0.000000    0.000000    
6.738539    157.364136    -117.584351    -0.880590    -3.435803    42.735615    1.016325    -1.376642    -3.361756    -13.758204    1.032914    -1.000810    -0.156341    -2.216680    -22.469448    16.765284    5.793877    -21.967451    10.477143    5.271224    -24.323723    -30.481857    23.509871    -50.936291    -21.554274    10.436498    -97.173302    -0.277616    -14.456942    -7.112660    -19.919720    -7.538404    -7.352134    7.308532    -17.523258    34.968449    -1.816609    -3.164541    84.758286    3.916163    -0.340649    33.206478    18.535048    -2.157923    -0.011224    -11.361487    27.737377    -19.431528    -0.231003    -23.902617    43.672939    0.000000    0.000000    0.000000    -15.603677    -19.061069    -12.463326    7.793737    19.491545    -15.377406    3.730162    11.979789    -14.871950    0.000000    0.000000    0.000000    
6.730196    157.348755    -117.586967    -0.874681    -3.455127    42.703529    0.986866    -1.390131    -3.317019    -13.703401    1.032338    -0.986453    -0.133407    -2.169225    -22.493650    16.774508    5.795459    -21.996441    10.508915    5.262882    -24.322220    -30.471098    23.492661    -50.958363    -21.539154    10.422667    -97.188438    -0.236163    -14.461970    -7.100533    -19.732229    -7.461862    -7.325357    7.697493    -17.675251    35.478771    -1.823416    -3.304782    84.482155    3.950334    -0.474628    33.155750    18.539114    -2.137710    -0.000451    -11.346854    27.758280    -19.468306    -0.192035    -23.937342    43.709534    0.000000    0.000000    0.000000    -15.593301    -19.060154    -12.463610    7.799320    19.506836    -15.367695    3.737507    11.952974    -14.848825    0.000000    0.000000    0.000000    
6.727785    157.331207    -117.585327    -0.859960    -3.477407    42.667744    0.933672    -1.421061    -3.283262    -13.600339    1.067472    -0.971812    -0.170128    -2.117594    -22.524017    16.829111    5.790312    -22.016993    10.510325    5.242809    -24.296375    -30.492224    23.435568    -50.967857    -21.598249    10.470909    -97.166763    -0.172479    -14.479245    -7.099662    -19.579767    -7.365098    -7.285061    8.061554    -17.673939    36.000416    -2.037792    -3.747950    84.159515    4.152174    -0.671396    33.223640    18.538391    -2.107188    0.013298    -11.331882    27.782627    -19.479033    -0.155701    -23.951508    43.711296    0.000000    0.000000    0.000000    -15.584139    -19.048592    -12.452561    7.802419    19.518766    -15.381527    3.721125    11.939567    -14.785180    0.000000    0.000000    0.000000    
